<svg version="1.2" baseProfile="tiny" viewBox="0 0 18.000 14.000" xmlns:xlink="http://www.w3.org/1999/xlink" xmlns="http://www.w3.org/2000/svg">
<path style="fill:#ffffff;" d="M0.806,14c-0.211,0-0.386-0.046-0.559-0.204l0.001-0.002c-0.165-0.152-0.246-0.34-0.246-0.602H0V0.82   c0-0.217,0.04-0.386,0.194-0.559l0,0C0.357,0.075,0.548,0,0.822,0v0.002h16.355V0c0.273,0,0.465,0.075,0.629,0.262l0,0   C17.96,0.435,18,0.604,18,0.82v12.372h-0.002c0,0.266-0.082,0.455-0.248,0.605l0,0C17.579,13.955,17.403,14,17.195,14H0.806   L0.806,14z M1.307,1.296V12.7h15.385V1.296H1.307L1.307,1.296z M1.92,10.586v1.255h1.59v-1.255H1.92L1.92,10.586z M4.963,10.586   v1.255h1.591v-1.255H4.963L4.963,10.586z M8.008,10.586v1.255h1.59v-1.255H8.008L8.008,10.586z M11.052,10.586v1.255h1.589v-1.255   H11.052L11.052,10.586z M14.094,10.586v1.255h1.59v-1.255H14.094L14.094,10.586z M1.919,2.319v1.255h13.895V2.319H1.919z"/>
</svg>